<mxfile host="app.diagrams.net" modified="2024-04-14T09:44:48.374Z" agent="Mozilla/5.0 (Windows NT 10.0; Win64; x64) AppleWebKit/537.36 (KHTML, like Gecko) Chrome/123.0.0.0 Safari/537.36" etag="rqJrTzDJdDQlpbCicbrZ" version="24.2.5" type="device">
  <diagram id="C5RBs43oDa-KdzZeNtuy" name="Page-1">
    <mxGraphModel dx="1907" dy="1700" grid="1" gridSize="10" guides="1" tooltips="1" connect="1" arrows="1" fold="1" page="1" pageScale="1" pageWidth="827" pageHeight="1169" math="0" shadow="0">
      <root>
        <mxCell id="WIyWlLk6GJQsqaUBKTNV-0" />
        <mxCell id="WIyWlLk6GJQsqaUBKTNV-1" parent="WIyWlLk6GJQsqaUBKTNV-0" />
        <mxCell id="zkfFHV4jXpPFQw0GAbJ--0" value="MainProgram" style="swimlane;fontStyle=2;align=center;verticalAlign=top;childLayout=stackLayout;horizontal=1;startSize=26;horizontalStack=0;resizeParent=1;resizeLast=0;collapsible=1;marginBottom=0;rounded=0;shadow=0;strokeWidth=1;" parent="WIyWlLk6GJQsqaUBKTNV-1" vertex="1">
          <mxGeometry x="130" y="-80" width="160" height="60" as="geometry">
            <mxRectangle x="230" y="140" width="160" height="26" as="alternateBounds" />
          </mxGeometry>
        </mxCell>
        <mxCell id="zkfFHV4jXpPFQw0GAbJ--5" value="+Main(string[]) : void" style="text;align=left;verticalAlign=top;spacingLeft=4;spacingRight=4;overflow=hidden;rotatable=0;points=[[0,0.5],[1,0.5]];portConstraint=eastwest;fontStyle=4" parent="zkfFHV4jXpPFQw0GAbJ--0" vertex="1">
          <mxGeometry y="26" width="160" height="26" as="geometry" />
        </mxCell>
        <mxCell id="zkfFHV4jXpPFQw0GAbJ--17" value="ModeMenu" style="swimlane;fontStyle=0;align=center;verticalAlign=top;childLayout=stackLayout;horizontal=1;startSize=26;horizontalStack=0;resizeParent=1;resizeLast=0;collapsible=1;marginBottom=0;rounded=0;shadow=0;strokeWidth=1;" parent="WIyWlLk6GJQsqaUBKTNV-1" vertex="1">
          <mxGeometry x="80" y="260" width="160" height="60" as="geometry">
            <mxRectangle x="550" y="140" width="160" height="26" as="alternateBounds" />
          </mxGeometry>
        </mxCell>
        <mxCell id="0cmeJKZqvEH9mntdH682-10" value="+Run() : bool {override}" style="text;align=left;verticalAlign=top;spacingLeft=4;spacingRight=4;overflow=hidden;rotatable=0;points=[[0,0.5],[1,0.5]];portConstraint=eastwest;" parent="zkfFHV4jXpPFQw0GAbJ--17" vertex="1">
          <mxGeometry y="26" width="160" height="24" as="geometry" />
        </mxCell>
        <mxCell id="0cmeJKZqvEH9mntdH682-0" value="MenuController{abstract}" style="swimlane;fontStyle=0;align=center;verticalAlign=top;childLayout=stackLayout;horizontal=1;startSize=26;horizontalStack=0;resizeParent=1;resizeLast=0;collapsible=1;marginBottom=0;rounded=0;shadow=0;strokeWidth=1;" parent="WIyWlLk6GJQsqaUBKTNV-1" vertex="1">
          <mxGeometry x="500" y="20" width="190" height="200" as="geometry">
            <mxRectangle x="550" y="140" width="160" height="26" as="alternateBounds" />
          </mxGeometry>
        </mxCell>
        <mxCell id="0cmeJKZqvEH9mntdH682-1" value="#menuScreen : MenuScreen" style="text;align=left;verticalAlign=top;spacingLeft=4;spacingRight=4;overflow=hidden;rotatable=0;points=[[0,0.5],[1,0.5]];portConstraint=eastwest;rounded=0;shadow=0;html=0;" parent="0cmeJKZqvEH9mntdH682-0" vertex="1">
          <mxGeometry y="26" width="190" height="26" as="geometry" />
        </mxCell>
        <mxCell id="0cmeJKZqvEH9mntdH682-6" value="#menuString : string[*]" style="text;align=left;verticalAlign=top;spacingLeft=4;spacingRight=4;overflow=hidden;rotatable=0;points=[[0,0.5],[1,0.5]];portConstraint=eastwest;rounded=0;shadow=0;html=0;" parent="0cmeJKZqvEH9mntdH682-0" vertex="1">
          <mxGeometry y="52" width="190" height="26" as="geometry" />
        </mxCell>
        <mxCell id="0cmeJKZqvEH9mntdH682-7" value="#menuValue : int" style="text;align=left;verticalAlign=top;spacingLeft=4;spacingRight=4;overflow=hidden;rotatable=0;points=[[0,0.5],[1,0.5]];portConstraint=eastwest;rounded=0;shadow=0;html=0;" parent="0cmeJKZqvEH9mntdH682-0" vertex="1">
          <mxGeometry y="78" width="190" height="26" as="geometry" />
        </mxCell>
        <mxCell id="0cmeJKZqvEH9mntdH682-2" value="" style="line;html=1;strokeWidth=1;align=left;verticalAlign=middle;spacingTop=-1;spacingLeft=3;spacingRight=3;rotatable=0;labelPosition=right;points=[];portConstraint=eastwest;" parent="0cmeJKZqvEH9mntdH682-0" vertex="1">
          <mxGeometry y="104" width="190" height="6" as="geometry" />
        </mxCell>
        <mxCell id="0cmeJKZqvEH9mntdH682-3" value="+Run() : bool {abstract}" style="text;align=left;verticalAlign=top;spacingLeft=4;spacingRight=4;overflow=hidden;rotatable=0;points=[[0,0.5],[1,0.5]];portConstraint=eastwest;" parent="0cmeJKZqvEH9mntdH682-0" vertex="1">
          <mxGeometry y="110" width="190" height="26" as="geometry" />
        </mxCell>
        <mxCell id="0cmeJKZqvEH9mntdH682-4" value="#SelectMenu() : bool" style="text;align=left;verticalAlign=top;spacingLeft=4;spacingRight=4;overflow=hidden;rotatable=0;points=[[0,0.5],[1,0.5]];portConstraint=eastwest;" parent="0cmeJKZqvEH9mntdH682-0" vertex="1">
          <mxGeometry y="136" width="190" height="26" as="geometry" />
        </mxCell>
        <mxCell id="0cmeJKZqvEH9mntdH682-8" value="#DecideMenuType(int) : string[*]" style="text;align=left;verticalAlign=top;spacingLeft=4;spacingRight=4;overflow=hidden;rotatable=0;points=[[0,0.5],[1,0.5]];portConstraint=eastwest;" parent="0cmeJKZqvEH9mntdH682-0" vertex="1">
          <mxGeometry y="162" width="190" height="26" as="geometry" />
        </mxCell>
        <mxCell id="0cmeJKZqvEH9mntdH682-11" value="YesNoMenu" style="swimlane;fontStyle=0;align=center;verticalAlign=top;childLayout=stackLayout;horizontal=1;startSize=26;horizontalStack=0;resizeParent=1;resizeLast=0;collapsible=1;marginBottom=0;rounded=0;shadow=0;strokeWidth=1;" parent="WIyWlLk6GJQsqaUBKTNV-1" vertex="1">
          <mxGeometry x="80" y="350" width="160" height="52" as="geometry">
            <mxRectangle x="550" y="140" width="160" height="26" as="alternateBounds" />
          </mxGeometry>
        </mxCell>
        <mxCell id="0cmeJKZqvEH9mntdH682-12" value="+Run() : bool {override}" style="text;align=left;verticalAlign=top;spacingLeft=4;spacingRight=4;overflow=hidden;rotatable=0;points=[[0,0.5],[1,0.5]];portConstraint=eastwest;" parent="0cmeJKZqvEH9mntdH682-11" vertex="1">
          <mxGeometry y="26" width="160" height="26" as="geometry" />
        </mxCell>
        <mxCell id="0cmeJKZqvEH9mntdH682-13" value="LogInMenu&#xa;" style="swimlane;fontStyle=0;align=center;verticalAlign=top;childLayout=stackLayout;horizontal=1;startSize=26;horizontalStack=0;resizeParent=1;resizeLast=0;collapsible=1;marginBottom=0;rounded=0;shadow=0;strokeWidth=1;" parent="WIyWlLk6GJQsqaUBKTNV-1" vertex="1">
          <mxGeometry x="785" y="650" width="160" height="80" as="geometry">
            <mxRectangle x="550" y="140" width="160" height="26" as="alternateBounds" />
          </mxGeometry>
        </mxCell>
        <mxCell id="0cmeJKZqvEH9mntdH682-20" value="- modeValue : int" style="text;align=left;verticalAlign=top;spacingLeft=4;spacingRight=4;overflow=hidden;rotatable=0;points=[[0,0.5],[1,0.5]];portConstraint=eastwest;" parent="0cmeJKZqvEH9mntdH682-13" vertex="1">
          <mxGeometry y="26" width="160" height="20" as="geometry" />
        </mxCell>
        <mxCell id="0cmeJKZqvEH9mntdH682-18" value="" style="line;html=1;strokeWidth=1;align=left;verticalAlign=middle;spacingTop=-1;spacingLeft=3;spacingRight=3;rotatable=0;labelPosition=right;points=[];portConstraint=eastwest;" parent="0cmeJKZqvEH9mntdH682-13" vertex="1">
          <mxGeometry y="46" width="160" height="4" as="geometry" />
        </mxCell>
        <mxCell id="0cmeJKZqvEH9mntdH682-19" value="+Run() : bool {override}" style="text;align=left;verticalAlign=top;spacingLeft=4;spacingRight=4;overflow=hidden;rotatable=0;points=[[0,0.5],[1,0.5]];portConstraint=eastwest;" parent="0cmeJKZqvEH9mntdH682-13" vertex="1">
          <mxGeometry y="50" width="160" height="20" as="geometry" />
        </mxCell>
        <mxCell id="0cmeJKZqvEH9mntdH682-21" value="LogInSignUpMenu&#xa;" style="swimlane;fontStyle=0;align=center;verticalAlign=top;childLayout=stackLayout;horizontal=1;startSize=26;horizontalStack=0;resizeParent=1;resizeLast=0;collapsible=1;marginBottom=0;rounded=0;shadow=0;strokeWidth=1;" parent="WIyWlLk6GJQsqaUBKTNV-1" vertex="1">
          <mxGeometry x="290" y="260" width="160" height="50" as="geometry">
            <mxRectangle x="550" y="140" width="160" height="26" as="alternateBounds" />
          </mxGeometry>
        </mxCell>
        <mxCell id="0cmeJKZqvEH9mntdH682-24" value="+Run() : bool {override}" style="text;align=left;verticalAlign=top;spacingLeft=4;spacingRight=4;overflow=hidden;rotatable=0;points=[[0,0.5],[1,0.5]];portConstraint=eastwest;" parent="0cmeJKZqvEH9mntdH682-21" vertex="1">
          <mxGeometry y="26" width="160" height="20" as="geometry" />
        </mxCell>
        <mxCell id="0cmeJKZqvEH9mntdH682-32" value="ManagerMenu" style="swimlane;fontStyle=0;align=center;verticalAlign=top;childLayout=stackLayout;horizontal=1;startSize=26;horizontalStack=0;resizeParent=1;resizeLast=0;collapsible=1;marginBottom=0;rounded=0;shadow=0;strokeWidth=1;" parent="WIyWlLk6GJQsqaUBKTNV-1" vertex="1">
          <mxGeometry x="1000" y="260" width="160" height="120" as="geometry">
            <mxRectangle x="550" y="140" width="160" height="26" as="alternateBounds" />
          </mxGeometry>
        </mxCell>
        <mxCell id="0cmeJKZqvEH9mntdH682-35" value="+Run() : bool {override}" style="text;align=left;verticalAlign=top;spacingLeft=4;spacingRight=4;overflow=hidden;rotatable=0;points=[[0,0.5],[1,0.5]];portConstraint=eastwest;" parent="0cmeJKZqvEH9mntdH682-32" vertex="1">
          <mxGeometry y="26" width="160" height="20" as="geometry" />
        </mxCell>
        <mxCell id="0cmeJKZqvEH9mntdH682-36" value="-SearchBook() : bool" style="text;align=left;verticalAlign=top;spacingLeft=4;spacingRight=4;overflow=hidden;rotatable=0;points=[[0,0.5],[1,0.5]];portConstraint=eastwest;" parent="0cmeJKZqvEH9mntdH682-32" vertex="1">
          <mxGeometry y="46" width="160" height="20" as="geometry" />
        </mxCell>
        <mxCell id="0cmeJKZqvEH9mntdH682-37" value="-DeleteBook() : bool" style="text;align=left;verticalAlign=top;spacingLeft=4;spacingRight=4;overflow=hidden;rotatable=0;points=[[0,0.5],[1,0.5]];portConstraint=eastwest;" parent="0cmeJKZqvEH9mntdH682-32" vertex="1">
          <mxGeometry y="66" width="160" height="20" as="geometry" />
        </mxCell>
        <mxCell id="0cmeJKZqvEH9mntdH682-38" value="-ModifyBook() : bool" style="text;align=left;verticalAlign=top;spacingLeft=4;spacingRight=4;overflow=hidden;rotatable=0;points=[[0,0.5],[1,0.5]];portConstraint=eastwest;" parent="0cmeJKZqvEH9mntdH682-32" vertex="1">
          <mxGeometry y="86" width="160" height="20" as="geometry" />
        </mxCell>
        <mxCell id="0cmeJKZqvEH9mntdH682-39" value="UserMenu" style="swimlane;fontStyle=0;align=center;verticalAlign=top;childLayout=stackLayout;horizontal=1;startSize=26;horizontalStack=0;resizeParent=1;resizeLast=0;collapsible=1;marginBottom=0;rounded=0;shadow=0;strokeWidth=1;" parent="WIyWlLk6GJQsqaUBKTNV-1" vertex="1">
          <mxGeometry x="770" y="260" width="190" height="160" as="geometry">
            <mxRectangle x="550" y="140" width="160" height="26" as="alternateBounds" />
          </mxGeometry>
        </mxCell>
        <mxCell id="0cmeJKZqvEH9mntdH682-40" value="+Run() : bool {override}" style="text;align=left;verticalAlign=top;spacingLeft=4;spacingRight=4;overflow=hidden;rotatable=0;points=[[0,0.5],[1,0.5]];portConstraint=eastwest;" parent="0cmeJKZqvEH9mntdH682-39" vertex="1">
          <mxGeometry y="26" width="190" height="20" as="geometry" />
        </mxCell>
        <mxCell id="0cmeJKZqvEH9mntdH682-41" value="-SearchBook() : bool" style="text;align=left;verticalAlign=top;spacingLeft=4;spacingRight=4;overflow=hidden;rotatable=0;points=[[0,0.5],[1,0.5]];portConstraint=eastwest;" parent="0cmeJKZqvEH9mntdH682-39" vertex="1">
          <mxGeometry y="46" width="190" height="20" as="geometry" />
        </mxCell>
        <mxCell id="0cmeJKZqvEH9mntdH682-42" value="-RentalBook() : bool" style="text;align=left;verticalAlign=top;spacingLeft=4;spacingRight=4;overflow=hidden;rotatable=0;points=[[0,0.5],[1,0.5]];portConstraint=eastwest;" parent="0cmeJKZqvEH9mntdH682-39" vertex="1">
          <mxGeometry y="66" width="190" height="20" as="geometry" />
        </mxCell>
        <mxCell id="0cmeJKZqvEH9mntdH682-43" value="-ShowRentalBookHistory() : bool" style="text;align=left;verticalAlign=top;spacingLeft=4;spacingRight=4;overflow=hidden;rotatable=0;points=[[0,0.5],[1,0.5]];portConstraint=eastwest;" parent="0cmeJKZqvEH9mntdH682-39" vertex="1">
          <mxGeometry y="86" width="190" height="20" as="geometry" />
        </mxCell>
        <mxCell id="0cmeJKZqvEH9mntdH682-44" value="-ReturnBook() : bool" style="text;align=left;verticalAlign=top;spacingLeft=4;spacingRight=4;overflow=hidden;rotatable=0;points=[[0,0.5],[1,0.5]];portConstraint=eastwest;" parent="0cmeJKZqvEH9mntdH682-39" vertex="1">
          <mxGeometry y="106" width="190" height="20" as="geometry" />
        </mxCell>
        <mxCell id="0cmeJKZqvEH9mntdH682-45" value="-ShowReturnBookHistory() : bool" style="text;align=left;verticalAlign=top;spacingLeft=4;spacingRight=4;overflow=hidden;rotatable=0;points=[[0,0.5],[1,0.5]];portConstraint=eastwest;" parent="0cmeJKZqvEH9mntdH682-39" vertex="1">
          <mxGeometry y="126" width="190" height="20" as="geometry" />
        </mxCell>
        <mxCell id="0cmeJKZqvEH9mntdH682-46" value="SignUpMenu" style="swimlane;fontStyle=0;align=center;verticalAlign=top;childLayout=stackLayout;horizontal=1;startSize=26;horizontalStack=0;resizeParent=1;resizeLast=0;collapsible=1;marginBottom=0;rounded=0;shadow=0;strokeWidth=1;" parent="WIyWlLk6GJQsqaUBKTNV-1" vertex="1">
          <mxGeometry x="785" y="780" width="160" height="60" as="geometry">
            <mxRectangle x="550" y="140" width="160" height="26" as="alternateBounds" />
          </mxGeometry>
        </mxCell>
        <mxCell id="0cmeJKZqvEH9mntdH682-47" value="+Run() : bool {override}" style="text;align=left;verticalAlign=top;spacingLeft=4;spacingRight=4;overflow=hidden;rotatable=0;points=[[0,0.5],[1,0.5]];portConstraint=eastwest;" parent="0cmeJKZqvEH9mntdH682-46" vertex="1">
          <mxGeometry y="26" width="160" height="20" as="geometry" />
        </mxCell>
        <mxCell id="0cmeJKZqvEH9mntdH682-63" value="BookSearchMenu" style="swimlane;fontStyle=0;align=center;verticalAlign=top;childLayout=stackLayout;horizontal=1;startSize=26;horizontalStack=0;resizeParent=1;resizeLast=0;collapsible=1;marginBottom=0;rounded=0;shadow=0;strokeWidth=1;" parent="WIyWlLk6GJQsqaUBKTNV-1" vertex="1">
          <mxGeometry x="1000" y="650" width="160" height="80" as="geometry">
            <mxRectangle x="550" y="140" width="160" height="26" as="alternateBounds" />
          </mxGeometry>
        </mxCell>
        <mxCell id="0cmeJKZqvEH9mntdH682-64" value="+Run() : bool {override}" style="text;align=left;verticalAlign=top;spacingLeft=4;spacingRight=4;overflow=hidden;rotatable=0;points=[[0,0.5],[1,0.5]];portConstraint=eastwest;" parent="0cmeJKZqvEH9mntdH682-63" vertex="1">
          <mxGeometry y="26" width="160" height="20" as="geometry" />
        </mxCell>
        <mxCell id="0cmeJKZqvEH9mntdH682-65" value="+SearchId() : int" style="text;align=left;verticalAlign=top;spacingLeft=4;spacingRight=4;overflow=hidden;rotatable=0;points=[[0,0.5],[1,0.5]];portConstraint=eastwest;" parent="0cmeJKZqvEH9mntdH682-63" vertex="1">
          <mxGeometry y="46" width="160" height="20" as="geometry" />
        </mxCell>
        <mxCell id="0cmeJKZqvEH9mntdH682-68" value="UserModifyMenu" style="swimlane;fontStyle=0;align=center;verticalAlign=top;childLayout=stackLayout;horizontal=1;startSize=26;horizontalStack=0;resizeParent=1;resizeLast=0;collapsible=1;marginBottom=0;rounded=0;shadow=0;strokeWidth=1;" parent="WIyWlLk6GJQsqaUBKTNV-1" vertex="1">
          <mxGeometry x="785" y="480" width="160" height="80" as="geometry">
            <mxRectangle x="550" y="140" width="160" height="26" as="alternateBounds" />
          </mxGeometry>
        </mxCell>
        <mxCell id="0cmeJKZqvEH9mntdH682-69" value="+Run() : bool {override}" style="text;align=left;verticalAlign=top;spacingLeft=4;spacingRight=4;overflow=hidden;rotatable=0;points=[[0,0.5],[1,0.5]];portConstraint=eastwest;" parent="0cmeJKZqvEH9mntdH682-68" vertex="1">
          <mxGeometry y="26" width="160" height="20" as="geometry" />
        </mxCell>
        <mxCell id="0cmeJKZqvEH9mntdH682-70" value="-Modify(string[]) : bool" style="text;align=left;verticalAlign=top;spacingLeft=4;spacingRight=4;overflow=hidden;rotatable=0;points=[[0,0.5],[1,0.5]];portConstraint=eastwest;" parent="0cmeJKZqvEH9mntdH682-68" vertex="1">
          <mxGeometry y="46" width="160" height="20" as="geometry" />
        </mxCell>
        <mxCell id="0cmeJKZqvEH9mntdH682-74" value="UserModifyDeleteMenu" style="swimlane;fontStyle=0;align=center;verticalAlign=top;childLayout=stackLayout;horizontal=1;startSize=26;horizontalStack=0;resizeParent=1;resizeLast=0;collapsible=1;marginBottom=0;rounded=0;shadow=0;strokeWidth=1;" parent="WIyWlLk6GJQsqaUBKTNV-1" vertex="1">
          <mxGeometry x="290" y="350" width="160" height="70" as="geometry">
            <mxRectangle x="550" y="140" width="160" height="26" as="alternateBounds" />
          </mxGeometry>
        </mxCell>
        <mxCell id="0cmeJKZqvEH9mntdH682-75" value="+Run() : bool {override}" style="text;align=left;verticalAlign=top;spacingLeft=4;spacingRight=4;overflow=hidden;rotatable=0;points=[[0,0.5],[1,0.5]];portConstraint=eastwest;" parent="0cmeJKZqvEH9mntdH682-74" vertex="1">
          <mxGeometry y="26" width="160" height="20" as="geometry" />
        </mxCell>
        <mxCell id="0cmeJKZqvEH9mntdH682-76" value="-Delete() : bool" style="text;align=left;verticalAlign=top;spacingLeft=4;spacingRight=4;overflow=hidden;rotatable=0;points=[[0,0.5],[1,0.5]];portConstraint=eastwest;" parent="0cmeJKZqvEH9mntdH682-74" vertex="1">
          <mxGeometry y="46" width="160" height="20" as="geometry" />
        </mxCell>
        <mxCell id="0cmeJKZqvEH9mntdH682-89" value="MemberModifyDeleteMenu" style="swimlane;fontStyle=0;align=center;verticalAlign=top;childLayout=stackLayout;horizontal=1;startSize=26;horizontalStack=0;resizeParent=1;resizeLast=0;collapsible=1;marginBottom=0;rounded=0;shadow=0;strokeWidth=1;" parent="WIyWlLk6GJQsqaUBKTNV-1" vertex="1">
          <mxGeometry x="1000" y="480" width="180" height="120" as="geometry">
            <mxRectangle x="550" y="140" width="160" height="26" as="alternateBounds" />
          </mxGeometry>
        </mxCell>
        <mxCell id="0cmeJKZqvEH9mntdH682-90" value="+Run() : bool {override}" style="text;align=left;verticalAlign=top;spacingLeft=4;spacingRight=4;overflow=hidden;rotatable=0;points=[[0,0.5],[1,0.5]];portConstraint=eastwest;" parent="0cmeJKZqvEH9mntdH682-89" vertex="1">
          <mxGeometry y="26" width="180" height="20" as="geometry" />
        </mxCell>
        <mxCell id="0cmeJKZqvEH9mntdH682-91" value="-Modify() : bool" style="text;align=left;verticalAlign=top;spacingLeft=4;spacingRight=4;overflow=hidden;rotatable=0;points=[[0,0.5],[1,0.5]];portConstraint=eastwest;" parent="0cmeJKZqvEH9mntdH682-89" vertex="1">
          <mxGeometry y="46" width="180" height="20" as="geometry" />
        </mxCell>
        <mxCell id="0cmeJKZqvEH9mntdH682-92" value="-Delete() : bool" style="text;align=left;verticalAlign=top;spacingLeft=4;spacingRight=4;overflow=hidden;rotatable=0;points=[[0,0.5],[1,0.5]];portConstraint=eastwest;" parent="0cmeJKZqvEH9mntdH682-89" vertex="1">
          <mxGeometry y="66" width="180" height="20" as="geometry" />
        </mxCell>
        <mxCell id="0cmeJKZqvEH9mntdH682-93" value="-SearchId() : AccountDto" style="text;align=left;verticalAlign=top;spacingLeft=4;spacingRight=4;overflow=hidden;rotatable=0;points=[[0,0.5],[1,0.5]];portConstraint=eastwest;" parent="0cmeJKZqvEH9mntdH682-89" vertex="1">
          <mxGeometry y="86" width="180" height="20" as="geometry" />
        </mxCell>
        <mxCell id="0cmeJKZqvEH9mntdH682-94" value="" style="endArrow=diamondThin;html=1;rounded=0;exitX=0.5;exitY=0;exitDx=0;exitDy=0;entryX=0.5;entryY=1;entryDx=0;entryDy=0;endFill=0;endSize=11;" parent="WIyWlLk6GJQsqaUBKTNV-1" source="zkfFHV4jXpPFQw0GAbJ--17" target="zkfFHV4jXpPFQw0GAbJ--0" edge="1">
          <mxGeometry width="50" height="50" relative="1" as="geometry">
            <mxPoint x="290" y="270" as="sourcePoint" />
            <mxPoint x="350" y="190" as="targetPoint" />
            <Array as="points">
              <mxPoint x="160" y="120" />
              <mxPoint x="210" y="120" />
            </Array>
          </mxGeometry>
        </mxCell>
        <mxCell id="0cmeJKZqvEH9mntdH682-95" value="" style="endArrow=diamondThin;html=1;rounded=0;entryX=0.5;entryY=1;entryDx=0;entryDy=0;endFill=0;endSize=11;" parent="WIyWlLk6GJQsqaUBKTNV-1" target="0cmeJKZqvEH9mntdH682-0" edge="1">
          <mxGeometry width="50" height="50" relative="1" as="geometry">
            <mxPoint x="160" y="260" as="sourcePoint" />
            <mxPoint x="380" y="155" as="targetPoint" />
            <Array as="points">
              <mxPoint x="160" y="240" />
              <mxPoint x="595" y="240" />
            </Array>
          </mxGeometry>
        </mxCell>
        <mxCell id="0cmeJKZqvEH9mntdH682-96" value="" style="endArrow=diamondThin;html=1;rounded=0;entryX=0.5;entryY=1;entryDx=0;entryDy=0;endFill=0;endSize=11;exitX=0.5;exitY=0;exitDx=0;exitDy=0;" parent="WIyWlLk6GJQsqaUBKTNV-1" source="0cmeJKZqvEH9mntdH682-21" target="0cmeJKZqvEH9mntdH682-0" edge="1">
          <mxGeometry width="50" height="50" relative="1" as="geometry">
            <mxPoint x="170" y="270" as="sourcePoint" />
            <mxPoint x="605" y="230" as="targetPoint" />
            <Array as="points">
              <mxPoint x="370" y="240" />
              <mxPoint x="595" y="240" />
            </Array>
          </mxGeometry>
        </mxCell>
        <mxCell id="0cmeJKZqvEH9mntdH682-98" value="" style="endArrow=diamondThin;html=1;rounded=0;endFill=0;endSize=11;exitX=0.5;exitY=0;exitDx=0;exitDy=0;entryX=0.5;entryY=1;entryDx=0;entryDy=0;" parent="WIyWlLk6GJQsqaUBKTNV-1" source="0cmeJKZqvEH9mntdH682-11" target="0cmeJKZqvEH9mntdH682-0" edge="1">
          <mxGeometry width="50" height="50" relative="1" as="geometry">
            <mxPoint x="380" y="360" as="sourcePoint" />
            <mxPoint x="590" y="220" as="targetPoint" />
            <Array as="points">
              <mxPoint x="160" y="330" />
              <mxPoint x="595" y="330" />
            </Array>
          </mxGeometry>
        </mxCell>
        <mxCell id="0cmeJKZqvEH9mntdH682-101" value="BookAddMenu" style="swimlane;fontStyle=0;align=center;verticalAlign=top;childLayout=stackLayout;horizontal=1;startSize=26;horizontalStack=0;resizeParent=1;resizeLast=0;collapsible=1;marginBottom=0;rounded=0;shadow=0;strokeWidth=1;" parent="WIyWlLk6GJQsqaUBKTNV-1" vertex="1">
          <mxGeometry x="1000" y="780" width="160" height="60" as="geometry">
            <mxRectangle x="550" y="140" width="160" height="26" as="alternateBounds" />
          </mxGeometry>
        </mxCell>
        <mxCell id="0cmeJKZqvEH9mntdH682-102" value="+Run() : bool {override}" style="text;align=left;verticalAlign=top;spacingLeft=4;spacingRight=4;overflow=hidden;rotatable=0;points=[[0,0.5],[1,0.5]];portConstraint=eastwest;" parent="0cmeJKZqvEH9mntdH682-101" vertex="1">
          <mxGeometry y="26" width="160" height="20" as="geometry" />
        </mxCell>
        <mxCell id="0cmeJKZqvEH9mntdH682-104" value="BookModifyMenu" style="swimlane;fontStyle=0;align=center;verticalAlign=top;childLayout=stackLayout;horizontal=1;startSize=26;horizontalStack=0;resizeParent=1;resizeLast=0;collapsible=1;marginBottom=0;rounded=0;shadow=0;strokeWidth=1;" parent="WIyWlLk6GJQsqaUBKTNV-1" vertex="1">
          <mxGeometry x="1000" y="920" width="160" height="80" as="geometry">
            <mxRectangle x="550" y="140" width="160" height="26" as="alternateBounds" />
          </mxGeometry>
        </mxCell>
        <mxCell id="0cmeJKZqvEH9mntdH682-105" value="+Run() : bool {override}" style="text;align=left;verticalAlign=top;spacingLeft=4;spacingRight=4;overflow=hidden;rotatable=0;points=[[0,0.5],[1,0.5]];portConstraint=eastwest;" parent="0cmeJKZqvEH9mntdH682-104" vertex="1">
          <mxGeometry y="26" width="160" height="20" as="geometry" />
        </mxCell>
        <mxCell id="0cmeJKZqvEH9mntdH682-106" value="-FindBookToEdit() : bool" style="text;align=left;verticalAlign=top;spacingLeft=4;spacingRight=4;overflow=hidden;rotatable=0;points=[[0,0.5],[1,0.5]];portConstraint=eastwest;" parent="0cmeJKZqvEH9mntdH682-104" vertex="1">
          <mxGeometry y="46" width="160" height="20" as="geometry" />
        </mxCell>
        <mxCell id="0cmeJKZqvEH9mntdH682-107" value="BookSearchMenu" style="swimlane;fontStyle=0;align=center;verticalAlign=top;childLayout=stackLayout;horizontal=1;startSize=26;horizontalStack=0;resizeParent=1;resizeLast=0;collapsible=1;marginBottom=0;rounded=0;shadow=0;strokeWidth=1;" parent="WIyWlLk6GJQsqaUBKTNV-1" vertex="1">
          <mxGeometry x="785" y="920" width="160" height="80" as="geometry">
            <mxRectangle x="550" y="140" width="160" height="26" as="alternateBounds" />
          </mxGeometry>
        </mxCell>
        <mxCell id="0cmeJKZqvEH9mntdH682-108" value="+Run() : bool {override}" style="text;align=left;verticalAlign=top;spacingLeft=4;spacingRight=4;overflow=hidden;rotatable=0;points=[[0,0.5],[1,0.5]];portConstraint=eastwest;" parent="0cmeJKZqvEH9mntdH682-107" vertex="1">
          <mxGeometry y="26" width="160" height="20" as="geometry" />
        </mxCell>
        <mxCell id="0cmeJKZqvEH9mntdH682-109" value="-SearchId() : int" style="text;align=left;verticalAlign=top;spacingLeft=4;spacingRight=4;overflow=hidden;rotatable=0;points=[[0,0.5],[1,0.5]];portConstraint=eastwest;" parent="0cmeJKZqvEH9mntdH682-107" vertex="1">
          <mxGeometry y="46" width="160" height="20" as="geometry" />
        </mxCell>
        <mxCell id="0cmeJKZqvEH9mntdH682-110" value="" style="endArrow=diamondThin;html=1;rounded=0;endFill=0;endSize=11;entryX=0.5;entryY=1;entryDx=0;entryDy=0;exitX=0.5;exitY=0;exitDx=0;exitDy=0;" parent="WIyWlLk6GJQsqaUBKTNV-1" source="0cmeJKZqvEH9mntdH682-39" target="0cmeJKZqvEH9mntdH682-0" edge="1">
          <mxGeometry width="50" height="50" relative="1" as="geometry">
            <mxPoint x="680" y="320" as="sourcePoint" />
            <mxPoint x="605" y="230" as="targetPoint" />
            <Array as="points">
              <mxPoint x="865" y="240" />
              <mxPoint x="595" y="240" />
            </Array>
          </mxGeometry>
        </mxCell>
        <mxCell id="0cmeJKZqvEH9mntdH682-111" value="" style="endArrow=diamondThin;html=1;rounded=0;endFill=0;endSize=11;entryX=0.5;entryY=1;entryDx=0;entryDy=0;exitX=0.5;exitY=0;exitDx=0;exitDy=0;" parent="WIyWlLk6GJQsqaUBKTNV-1" source="0cmeJKZqvEH9mntdH682-32" target="0cmeJKZqvEH9mntdH682-0" edge="1">
          <mxGeometry width="50" height="50" relative="1" as="geometry">
            <mxPoint x="875" y="270" as="sourcePoint" />
            <mxPoint x="605" y="230" as="targetPoint" />
            <Array as="points">
              <mxPoint x="1080" y="240" />
              <mxPoint x="595" y="240" />
            </Array>
          </mxGeometry>
        </mxCell>
        <mxCell id="0cmeJKZqvEH9mntdH682-112" value="" style="endArrow=diamondThin;html=1;rounded=0;endFill=0;endSize=11;entryX=0.5;entryY=1;entryDx=0;entryDy=0;exitX=0.5;exitY=0;exitDx=0;exitDy=0;" parent="WIyWlLk6GJQsqaUBKTNV-1" source="0cmeJKZqvEH9mntdH682-68" target="0cmeJKZqvEH9mntdH682-0" edge="1">
          <mxGeometry width="50" height="50" relative="1" as="geometry">
            <mxPoint x="1090" y="270" as="sourcePoint" />
            <mxPoint x="605" y="230" as="targetPoint" />
            <Array as="points">
              <mxPoint x="865" y="440" />
              <mxPoint x="595" y="440" />
            </Array>
          </mxGeometry>
        </mxCell>
        <mxCell id="0cmeJKZqvEH9mntdH682-113" value="" style="endArrow=diamondThin;html=1;rounded=0;endFill=0;endSize=11;entryX=0.5;entryY=1;entryDx=0;entryDy=0;exitX=0.5;exitY=0;exitDx=0;exitDy=0;" parent="WIyWlLk6GJQsqaUBKTNV-1" source="0cmeJKZqvEH9mntdH682-89" target="0cmeJKZqvEH9mntdH682-0" edge="1">
          <mxGeometry width="50" height="50" relative="1" as="geometry">
            <mxPoint x="875" y="490" as="sourcePoint" />
            <mxPoint x="605" y="230" as="targetPoint" />
            <Array as="points">
              <mxPoint x="1090" y="440" />
              <mxPoint x="595" y="440" />
            </Array>
          </mxGeometry>
        </mxCell>
        <mxCell id="0cmeJKZqvEH9mntdH682-115" value="" style="endArrow=diamondThin;html=1;rounded=0;endFill=0;endSize=11;entryX=0.5;entryY=1;entryDx=0;entryDy=0;exitX=0.5;exitY=0;exitDx=0;exitDy=0;" parent="WIyWlLk6GJQsqaUBKTNV-1" source="0cmeJKZqvEH9mntdH682-63" target="0cmeJKZqvEH9mntdH682-0" edge="1">
          <mxGeometry width="50" height="50" relative="1" as="geometry">
            <mxPoint x="1100" y="490" as="sourcePoint" />
            <mxPoint x="605" y="230" as="targetPoint" />
            <Array as="points">
              <mxPoint x="1080" y="620" />
              <mxPoint x="595" y="620" />
            </Array>
          </mxGeometry>
        </mxCell>
        <mxCell id="0cmeJKZqvEH9mntdH682-116" value="" style="endArrow=diamondThin;html=1;rounded=0;endFill=0;endSize=11;entryX=0.5;entryY=1;entryDx=0;entryDy=0;exitX=0.5;exitY=0;exitDx=0;exitDy=0;" parent="WIyWlLk6GJQsqaUBKTNV-1" source="0cmeJKZqvEH9mntdH682-13" target="0cmeJKZqvEH9mntdH682-0" edge="1">
          <mxGeometry width="50" height="50" relative="1" as="geometry">
            <mxPoint x="1090" y="660" as="sourcePoint" />
            <mxPoint x="605" y="230" as="targetPoint" />
            <Array as="points">
              <mxPoint x="865" y="620" />
              <mxPoint x="595" y="620" />
            </Array>
          </mxGeometry>
        </mxCell>
        <mxCell id="0cmeJKZqvEH9mntdH682-117" value="" style="endArrow=diamondThin;html=1;rounded=0;endFill=0;endSize=11;entryX=0.5;entryY=1;entryDx=0;entryDy=0;exitX=0.5;exitY=0;exitDx=0;exitDy=0;" parent="WIyWlLk6GJQsqaUBKTNV-1" source="0cmeJKZqvEH9mntdH682-46" target="0cmeJKZqvEH9mntdH682-0" edge="1">
          <mxGeometry width="50" height="50" relative="1" as="geometry">
            <mxPoint x="875" y="660" as="sourcePoint" />
            <mxPoint x="605" y="230" as="targetPoint" />
            <Array as="points">
              <mxPoint x="865" y="760" />
              <mxPoint x="595" y="760" />
            </Array>
          </mxGeometry>
        </mxCell>
        <mxCell id="0cmeJKZqvEH9mntdH682-118" value="" style="endArrow=diamondThin;html=1;rounded=0;endFill=0;endSize=11;entryX=0.5;entryY=1;entryDx=0;entryDy=0;exitX=0.5;exitY=0;exitDx=0;exitDy=0;" parent="WIyWlLk6GJQsqaUBKTNV-1" source="0cmeJKZqvEH9mntdH682-101" target="0cmeJKZqvEH9mntdH682-0" edge="1">
          <mxGeometry width="50" height="50" relative="1" as="geometry">
            <mxPoint x="875" y="790" as="sourcePoint" />
            <mxPoint x="605" y="230" as="targetPoint" />
            <Array as="points">
              <mxPoint x="1080" y="760" />
              <mxPoint x="595" y="760" />
            </Array>
          </mxGeometry>
        </mxCell>
        <mxCell id="0cmeJKZqvEH9mntdH682-119" value="" style="endArrow=diamondThin;html=1;rounded=0;endFill=0;endSize=11;entryX=0.5;entryY=1;entryDx=0;entryDy=0;exitX=0.5;exitY=0;exitDx=0;exitDy=0;" parent="WIyWlLk6GJQsqaUBKTNV-1" source="0cmeJKZqvEH9mntdH682-107" target="0cmeJKZqvEH9mntdH682-0" edge="1">
          <mxGeometry width="50" height="50" relative="1" as="geometry">
            <mxPoint x="1090" y="790" as="sourcePoint" />
            <mxPoint x="605" y="230" as="targetPoint" />
            <Array as="points">
              <mxPoint x="865" y="880" />
              <mxPoint x="595" y="880" />
            </Array>
          </mxGeometry>
        </mxCell>
        <mxCell id="0cmeJKZqvEH9mntdH682-120" value="" style="endArrow=diamondThin;html=1;rounded=0;endFill=0;endSize=11;entryX=0.5;entryY=1;entryDx=0;entryDy=0;exitX=0.5;exitY=0;exitDx=0;exitDy=0;" parent="WIyWlLk6GJQsqaUBKTNV-1" source="0cmeJKZqvEH9mntdH682-104" target="0cmeJKZqvEH9mntdH682-0" edge="1">
          <mxGeometry width="50" height="50" relative="1" as="geometry">
            <mxPoint x="875" y="930" as="sourcePoint" />
            <mxPoint x="605" y="230" as="targetPoint" />
            <Array as="points">
              <mxPoint x="1080" y="880" />
              <mxPoint x="595" y="880" />
            </Array>
          </mxGeometry>
        </mxCell>
        <mxCell id="0cmeJKZqvEH9mntdH682-121" value="" style="endArrow=diamondThin;html=1;rounded=0;endFill=0;endSize=11;exitX=0.5;exitY=0;exitDx=0;exitDy=0;entryX=0.5;entryY=1;entryDx=0;entryDy=0;" parent="WIyWlLk6GJQsqaUBKTNV-1" source="0cmeJKZqvEH9mntdH682-74" target="0cmeJKZqvEH9mntdH682-0" edge="1">
          <mxGeometry width="50" height="50" relative="1" as="geometry">
            <mxPoint x="170" y="360" as="sourcePoint" />
            <mxPoint x="605" y="230" as="targetPoint" />
            <Array as="points">
              <mxPoint x="370" y="330" />
              <mxPoint x="595" y="330" />
            </Array>
          </mxGeometry>
        </mxCell>
        <mxCell id="0cmeJKZqvEH9mntdH682-122" value="InformaionController" style="swimlane;fontStyle=0;align=center;verticalAlign=top;childLayout=stackLayout;horizontal=1;startSize=26;horizontalStack=0;resizeParent=1;resizeLast=0;collapsible=1;marginBottom=0;rounded=0;shadow=0;strokeWidth=1;" parent="WIyWlLk6GJQsqaUBKTNV-1" vertex="1">
          <mxGeometry x="1360" y="260" width="305" height="450" as="geometry">
            <mxRectangle x="550" y="140" width="160" height="26" as="alternateBounds" />
          </mxGeometry>
        </mxCell>
        <mxCell id="0cmeJKZqvEH9mntdH682-125" value="+CheckUserLogIn(string, int) : bool" style="text;align=left;verticalAlign=top;spacingLeft=4;spacingRight=4;overflow=hidden;rotatable=0;points=[[0,0.5],[1,0.5]];portConstraint=eastwest;" parent="0cmeJKZqvEH9mntdH682-122" vertex="1">
          <mxGeometry y="26" width="305" height="20" as="geometry" />
        </mxCell>
        <mxCell id="0cmeJKZqvEH9mntdH682-130" value="+CheckManagerLogIn(string, int) : bool" style="text;align=left;verticalAlign=top;spacingLeft=4;spacingRight=4;overflow=hidden;rotatable=0;points=[[0,0.5],[1,0.5]];portConstraint=eastwest;" parent="0cmeJKZqvEH9mntdH682-122" vertex="1">
          <mxGeometry y="46" width="305" height="20" as="geometry" />
        </mxCell>
        <mxCell id="0cmeJKZqvEH9mntdH682-131" value="+SaveUserDate(string[]) : void" style="text;align=left;verticalAlign=top;spacingLeft=4;spacingRight=4;overflow=hidden;rotatable=0;points=[[0,0.5],[1,0.5]];portConstraint=eastwest;" parent="0cmeJKZqvEH9mntdH682-122" vertex="1">
          <mxGeometry y="66" width="305" height="20" as="geometry" />
        </mxCell>
        <mxCell id="0cmeJKZqvEH9mntdH682-132" value="+SaveBookData(string[]) : void" style="text;align=left;verticalAlign=top;spacingLeft=4;spacingRight=4;overflow=hidden;rotatable=0;points=[[0,0.5],[1,0.5]];portConstraint=eastwest;" parent="0cmeJKZqvEH9mntdH682-122" vertex="1">
          <mxGeometry y="86" width="305" height="20" as="geometry" />
        </mxCell>
        <mxCell id="0cmeJKZqvEH9mntdH682-133" value="+ShowAllBookInfo() : void" style="text;align=left;verticalAlign=top;spacingLeft=4;spacingRight=4;overflow=hidden;rotatable=0;points=[[0,0.5],[1,0.5]];portConstraint=eastwest;" parent="0cmeJKZqvEH9mntdH682-122" vertex="1">
          <mxGeometry y="106" width="305" height="20" as="geometry" />
        </mxCell>
        <mxCell id="0cmeJKZqvEH9mntdH682-134" value="+SearchBooks(string[]) : List&lt;BookDto&gt; [*]" style="text;align=left;verticalAlign=top;spacingLeft=4;spacingRight=4;overflow=hidden;rotatable=0;points=[[0,0.5],[1,0.5]];portConstraint=eastwest;" parent="0cmeJKZqvEH9mntdH682-122" vertex="1">
          <mxGeometry y="126" width="305" height="20" as="geometry" />
        </mxCell>
        <mxCell id="0cmeJKZqvEH9mntdH682-135" value="+TrimString(string) : string" style="text;align=left;verticalAlign=top;spacingLeft=4;spacingRight=4;overflow=hidden;rotatable=0;points=[[0,0.5],[1,0.5]];portConstraint=eastwest;" parent="0cmeJKZqvEH9mntdH682-122" vertex="1">
          <mxGeometry y="146" width="305" height="20" as="geometry" />
        </mxCell>
        <mxCell id="0cmeJKZqvEH9mntdH682-136" value="+SearchIdBooks(int) : BookDto" style="text;align=left;verticalAlign=top;spacingLeft=4;spacingRight=4;overflow=hidden;rotatable=0;points=[[0,0.5],[1,0.5]];portConstraint=eastwest;" parent="0cmeJKZqvEH9mntdH682-122" vertex="1">
          <mxGeometry y="166" width="305" height="20" as="geometry" />
        </mxCell>
        <mxCell id="0cmeJKZqvEH9mntdH682-137" value="+RentalBook(BookDto) : void" style="text;align=left;verticalAlign=top;spacingLeft=4;spacingRight=4;overflow=hidden;rotatable=0;points=[[0,0.5],[1,0.5]];portConstraint=eastwest;" parent="0cmeJKZqvEH9mntdH682-122" vertex="1">
          <mxGeometry y="186" width="305" height="20" as="geometry" />
        </mxCell>
        <mxCell id="0cmeJKZqvEH9mntdH682-138" value="+GetRentalBook() : List&lt;BookDto&gt; [*]" style="text;align=left;verticalAlign=top;spacingLeft=4;spacingRight=4;overflow=hidden;rotatable=0;points=[[0,0.5],[1,0.5]];portConstraint=eastwest;" parent="0cmeJKZqvEH9mntdH682-122" vertex="1">
          <mxGeometry y="206" width="305" height="20" as="geometry" />
        </mxCell>
        <mxCell id="0cmeJKZqvEH9mntdH682-139" value="+RemoveReturnBook(BookDto) : bool" style="text;align=left;verticalAlign=top;spacingLeft=4;spacingRight=4;overflow=hidden;rotatable=0;points=[[0,0.5],[1,0.5]];portConstraint=eastwest;" parent="0cmeJKZqvEH9mntdH682-122" vertex="1">
          <mxGeometry y="226" width="305" height="20" as="geometry" />
        </mxCell>
        <mxCell id="0cmeJKZqvEH9mntdH682-140" value="+GetReturnBook() : List&lt;BookDto&gt; [*]" style="text;align=left;verticalAlign=top;spacingLeft=4;spacingRight=4;overflow=hidden;rotatable=0;points=[[0,0.5],[1,0.5]];portConstraint=eastwest;" parent="0cmeJKZqvEH9mntdH682-122" vertex="1">
          <mxGeometry y="246" width="305" height="20" as="geometry" />
        </mxCell>
        <mxCell id="0cmeJKZqvEH9mntdH682-141" value="+GetAccount() : AccoutDto" style="text;align=left;verticalAlign=top;spacingLeft=4;spacingRight=4;overflow=hidden;rotatable=0;points=[[0,0.5],[1,0.5]];portConstraint=eastwest;" parent="0cmeJKZqvEH9mntdH682-122" vertex="1">
          <mxGeometry y="266" width="305" height="20" as="geometry" />
        </mxCell>
        <mxCell id="0cmeJKZqvEH9mntdH682-142" value="+GetAccoutList() : List&lt;AccoutDto&gt; [*]" style="text;align=left;verticalAlign=top;spacingLeft=4;spacingRight=4;overflow=hidden;rotatable=0;points=[[0,0.5],[1,0.5]];portConstraint=eastwest;" parent="0cmeJKZqvEH9mntdH682-122" vertex="1">
          <mxGeometry y="286" width="305" height="20" as="geometry" />
        </mxCell>
        <mxCell id="0cmeJKZqvEH9mntdH682-143" value="+ModifyAccount(AccoutDto, AccountDto) : void" style="text;align=left;verticalAlign=top;spacingLeft=4;spacingRight=4;overflow=hidden;rotatable=0;points=[[0,0.5],[1,0.5]];portConstraint=eastwest;" parent="0cmeJKZqvEH9mntdH682-122" vertex="1">
          <mxGeometry y="306" width="305" height="20" as="geometry" />
        </mxCell>
        <mxCell id="0cmeJKZqvEH9mntdH682-144" value="+DeleteBook(int) : void" style="text;align=left;verticalAlign=top;spacingLeft=4;spacingRight=4;overflow=hidden;rotatable=0;points=[[0,0.5],[1,0.5]];portConstraint=eastwest;" parent="0cmeJKZqvEH9mntdH682-122" vertex="1">
          <mxGeometry y="326" width="305" height="20" as="geometry" />
        </mxCell>
        <mxCell id="0cmeJKZqvEH9mntdH682-145" value="+ModifyBook(int, BookDto) : void" style="text;align=left;verticalAlign=top;spacingLeft=4;spacingRight=4;overflow=hidden;rotatable=0;points=[[0,0.5],[1,0.5]];portConstraint=eastwest;" parent="0cmeJKZqvEH9mntdH682-122" vertex="1">
          <mxGeometry y="346" width="305" height="20" as="geometry" />
        </mxCell>
        <mxCell id="0cmeJKZqvEH9mntdH682-146" value="+DeleteAccount(AccountDto) : bool" style="text;align=left;verticalAlign=top;spacingLeft=4;spacingRight=4;overflow=hidden;rotatable=0;points=[[0,0.5],[1,0.5]];portConstraint=eastwest;" parent="0cmeJKZqvEH9mntdH682-122" vertex="1">
          <mxGeometry y="366" width="305" height="20" as="geometry" />
        </mxCell>
        <mxCell id="0cmeJKZqvEH9mntdH682-147" value="+GetBookList() : List&lt;BookDto&gt; [*]" style="text;align=left;verticalAlign=top;spacingLeft=4;spacingRight=4;overflow=hidden;rotatable=0;points=[[0,0.5],[1,0.5]];portConstraint=eastwest;" parent="0cmeJKZqvEH9mntdH682-122" vertex="1">
          <mxGeometry y="386" width="305" height="20" as="geometry" />
        </mxCell>
        <mxCell id="0cmeJKZqvEH9mntdH682-148" value="+LogInUser(AccountDto) : void" style="text;align=left;verticalAlign=top;spacingLeft=4;spacingRight=4;overflow=hidden;rotatable=0;points=[[0,0.5],[1,0.5]];portConstraint=eastwest;" parent="0cmeJKZqvEH9mntdH682-122" vertex="1">
          <mxGeometry y="406" width="305" height="20" as="geometry" />
        </mxCell>
        <mxCell id="0cmeJKZqvEH9mntdH682-149" value="InputController" style="swimlane;fontStyle=0;align=center;verticalAlign=top;childLayout=stackLayout;horizontal=1;startSize=26;horizontalStack=0;resizeParent=1;resizeLast=0;collapsible=1;marginBottom=0;rounded=0;shadow=0;strokeWidth=1;" parent="WIyWlLk6GJQsqaUBKTNV-1" vertex="1">
          <mxGeometry x="1355" y="920" width="310" height="100" as="geometry">
            <mxRectangle x="550" y="140" width="160" height="26" as="alternateBounds" />
          </mxGeometry>
        </mxCell>
        <mxCell id="0cmeJKZqvEH9mntdH682-155" value="+LimitImputLength(Tuple&lt;int, int&gt;, int, bool) : string" style="text;align=left;verticalAlign=top;spacingLeft=4;spacingRight=4;overflow=hidden;rotatable=0;points=[[0,0.5],[1,0.5]];portConstraint=eastwest;" parent="0cmeJKZqvEH9mntdH682-149" vertex="1">
          <mxGeometry y="26" width="310" height="20" as="geometry" />
        </mxCell>
        <mxCell id="pyz4EVDYqer2w_OwESVc-0" value="+CheckRegularExpression(string) : string" style="text;align=left;verticalAlign=top;spacingLeft=4;spacingRight=4;overflow=hidden;rotatable=0;points=[[0,0.5],[1,0.5]];portConstraint=eastwest;" vertex="1" parent="0cmeJKZqvEH9mntdH682-149">
          <mxGeometry y="46" width="310" height="20" as="geometry" />
        </mxCell>
        <mxCell id="pyz4EVDYqer2w_OwESVc-1" value="-Erase(int, int) : void" style="text;align=left;verticalAlign=top;spacingLeft=4;spacingRight=4;overflow=hidden;rotatable=0;points=[[0,0.5],[1,0.5]];portConstraint=eastwest;" vertex="1" parent="0cmeJKZqvEH9mntdH682-149">
          <mxGeometry y="66" width="310" height="20" as="geometry" />
        </mxCell>
        <mxCell id="pyz4EVDYqer2w_OwESVc-2" value="" style="endArrow=diamondThin;html=1;rounded=0;endFill=0;endSize=11;entryX=0.5;entryY=1;entryDx=0;entryDy=0;exitX=0.5;exitY=0;exitDx=0;exitDy=0;" edge="1" parent="WIyWlLk6GJQsqaUBKTNV-1" source="0cmeJKZqvEH9mntdH682-122" target="0cmeJKZqvEH9mntdH682-63">
          <mxGeometry width="50" height="50" relative="1" as="geometry">
            <mxPoint x="1210" y="160" as="sourcePoint" />
            <mxPoint x="1080" y="650" as="targetPoint" />
            <Array as="points">
              <mxPoint x="1513" y="230" />
              <mxPoint x="1250" y="230" />
              <mxPoint x="1250" y="750" />
              <mxPoint x="1160" y="750" />
              <mxPoint x="1080" y="750" />
            </Array>
          </mxGeometry>
        </mxCell>
        <mxCell id="pyz4EVDYqer2w_OwESVc-3" value="" style="endArrow=diamondThin;html=1;rounded=0;endFill=0;endSize=11;entryX=0.5;entryY=1;entryDx=0;entryDy=0;exitX=0.5;exitY=0;exitDx=0;exitDy=0;" edge="1" parent="WIyWlLk6GJQsqaUBKTNV-1" source="0cmeJKZqvEH9mntdH682-122" target="0cmeJKZqvEH9mntdH682-104">
          <mxGeometry width="50" height="50" relative="1" as="geometry">
            <mxPoint x="1523" y="270" as="sourcePoint" />
            <mxPoint x="1090" y="740" as="targetPoint" />
            <Array as="points">
              <mxPoint x="1513" y="230" />
              <mxPoint x="1250" y="230" />
              <mxPoint x="1250" y="750" />
              <mxPoint x="1250" y="1050" />
              <mxPoint x="1080" y="1050" />
            </Array>
          </mxGeometry>
        </mxCell>
        <mxCell id="pyz4EVDYqer2w_OwESVc-4" value="" style="endArrow=diamondThin;html=1;rounded=0;endFill=0;endSize=11;entryX=0.5;entryY=1;entryDx=0;entryDy=0;exitX=0.5;exitY=0;exitDx=0;exitDy=0;" edge="1" parent="WIyWlLk6GJQsqaUBKTNV-1" source="0cmeJKZqvEH9mntdH682-122" target="0cmeJKZqvEH9mntdH682-107">
          <mxGeometry width="50" height="50" relative="1" as="geometry">
            <mxPoint x="1523" y="270" as="sourcePoint" />
            <mxPoint x="1090" y="1010" as="targetPoint" />
            <Array as="points">
              <mxPoint x="1513" y="230" />
              <mxPoint x="1250" y="230" />
              <mxPoint x="1250" y="1050" />
              <mxPoint x="865" y="1050" />
            </Array>
          </mxGeometry>
        </mxCell>
        <mxCell id="pyz4EVDYqer2w_OwESVc-5" value="" style="endArrow=diamondThin;html=1;rounded=0;endFill=0;endSize=11;entryX=0.5;entryY=1;entryDx=0;entryDy=0;exitX=0.5;exitY=0;exitDx=0;exitDy=0;" edge="1" parent="WIyWlLk6GJQsqaUBKTNV-1" source="0cmeJKZqvEH9mntdH682-122" target="0cmeJKZqvEH9mntdH682-13">
          <mxGeometry width="50" height="50" relative="1" as="geometry">
            <mxPoint x="1460" y="250" as="sourcePoint" />
            <mxPoint x="875" y="1010" as="targetPoint" />
            <Array as="points">
              <mxPoint x="1513" y="230" />
              <mxPoint x="1250" y="230" />
              <mxPoint x="1250" y="750" />
              <mxPoint x="865" y="750" />
            </Array>
          </mxGeometry>
        </mxCell>
        <mxCell id="pyz4EVDYqer2w_OwESVc-6" value="" style="endArrow=diamondThin;html=1;rounded=0;endFill=0;endSize=11;entryX=0.5;entryY=1;entryDx=0;entryDy=0;exitX=0.5;exitY=0;exitDx=0;exitDy=0;" edge="1" parent="WIyWlLk6GJQsqaUBKTNV-1" source="0cmeJKZqvEH9mntdH682-122" target="0cmeJKZqvEH9mntdH682-32">
          <mxGeometry width="50" height="50" relative="1" as="geometry">
            <mxPoint x="1523" y="270" as="sourcePoint" />
            <mxPoint x="875" y="740" as="targetPoint" />
            <Array as="points">
              <mxPoint x="1513" y="230" />
              <mxPoint x="1250" y="230" />
              <mxPoint x="1250" y="430" />
              <mxPoint x="1080" y="430" />
            </Array>
          </mxGeometry>
        </mxCell>
        <mxCell id="pyz4EVDYqer2w_OwESVc-7" value="" style="endArrow=diamondThin;html=1;rounded=0;endFill=0;endSize=11;entryX=0.5;entryY=1;entryDx=0;entryDy=0;exitX=0.5;exitY=0;exitDx=0;exitDy=0;" edge="1" parent="WIyWlLk6GJQsqaUBKTNV-1" source="0cmeJKZqvEH9mntdH682-122" target="0cmeJKZqvEH9mntdH682-89">
          <mxGeometry width="50" height="50" relative="1" as="geometry">
            <mxPoint x="1430" y="240" as="sourcePoint" />
            <mxPoint x="1090" y="390" as="targetPoint" />
            <Array as="points">
              <mxPoint x="1513" y="230" />
              <mxPoint x="1250" y="230" />
              <mxPoint x="1250" y="630" />
              <mxPoint x="1090" y="630" />
            </Array>
          </mxGeometry>
        </mxCell>
        <mxCell id="pyz4EVDYqer2w_OwESVc-9" value="" style="endArrow=diamondThin;html=1;rounded=0;endFill=0;endSize=11;exitX=0.5;exitY=0;exitDx=0;exitDy=0;entryX=0.5;entryY=1;entryDx=0;entryDy=0;" edge="1" parent="WIyWlLk6GJQsqaUBKTNV-1" source="0cmeJKZqvEH9mntdH682-122" target="0cmeJKZqvEH9mntdH682-46">
          <mxGeometry width="50" height="50" relative="1" as="geometry">
            <mxPoint x="1523" y="270" as="sourcePoint" />
            <mxPoint x="880" y="860" as="targetPoint" />
            <Array as="points">
              <mxPoint x="1513" y="230" />
              <mxPoint x="1250" y="230" />
              <mxPoint x="1250" y="860" />
              <mxPoint x="865" y="860" />
            </Array>
          </mxGeometry>
        </mxCell>
        <mxCell id="pyz4EVDYqer2w_OwESVc-10" value="" style="endArrow=diamondThin;html=1;rounded=0;endFill=0;endSize=11;entryX=0.5;entryY=1;entryDx=0;entryDy=0;exitX=0.5;exitY=0;exitDx=0;exitDy=0;" edge="1" parent="WIyWlLk6GJQsqaUBKTNV-1" source="0cmeJKZqvEH9mntdH682-122" target="0cmeJKZqvEH9mntdH682-39">
          <mxGeometry width="50" height="50" relative="1" as="geometry">
            <mxPoint x="1420" y="200" as="sourcePoint" />
            <mxPoint x="875" y="850" as="targetPoint" />
            <Array as="points">
              <mxPoint x="1513" y="230" />
              <mxPoint x="1250" y="230" />
              <mxPoint x="1250" y="450" />
              <mxPoint x="865" y="450" />
            </Array>
          </mxGeometry>
        </mxCell>
        <mxCell id="pyz4EVDYqer2w_OwESVc-12" value="" style="endArrow=diamondThin;html=1;rounded=0;endFill=0;endSize=11;entryX=0.5;entryY=1;entryDx=0;entryDy=0;exitX=0.5;exitY=0;exitDx=0;exitDy=0;" edge="1" parent="WIyWlLk6GJQsqaUBKTNV-1" source="0cmeJKZqvEH9mntdH682-122" target="0cmeJKZqvEH9mntdH682-68">
          <mxGeometry width="50" height="50" relative="1" as="geometry">
            <mxPoint x="1523" y="270" as="sourcePoint" />
            <mxPoint x="875" y="430" as="targetPoint" />
            <Array as="points">
              <mxPoint x="1513" y="230" />
              <mxPoint x="1250" y="230" />
              <mxPoint x="1250" y="630" />
              <mxPoint x="865" y="630" />
            </Array>
          </mxGeometry>
        </mxCell>
        <mxCell id="pyz4EVDYqer2w_OwESVc-13" value="" style="endArrow=diamondThin;html=1;rounded=0;endFill=0;endSize=11;entryX=0.5;entryY=1;entryDx=0;entryDy=0;exitX=0.5;exitY=0;exitDx=0;exitDy=0;" edge="1" parent="WIyWlLk6GJQsqaUBKTNV-1" source="0cmeJKZqvEH9mntdH682-149" target="0cmeJKZqvEH9mntdH682-101">
          <mxGeometry width="50" height="50" relative="1" as="geometry">
            <mxPoint x="1523" y="270" as="sourcePoint" />
            <mxPoint x="875" y="1010" as="targetPoint" />
            <Array as="points">
              <mxPoint x="1510" y="870" />
              <mxPoint x="1080" y="870" />
            </Array>
          </mxGeometry>
        </mxCell>
        <mxCell id="pyz4EVDYqer2w_OwESVc-14" value="" style="endArrow=diamondThin;html=1;rounded=0;endFill=0;endSize=11;entryX=0.5;entryY=1;entryDx=0;entryDy=0;" edge="1" parent="WIyWlLk6GJQsqaUBKTNV-1" target="0cmeJKZqvEH9mntdH682-104">
          <mxGeometry width="50" height="50" relative="1" as="geometry">
            <mxPoint x="1510" y="920" as="sourcePoint" />
            <mxPoint x="1090" y="850" as="targetPoint" />
            <Array as="points">
              <mxPoint x="1510" y="870" />
              <mxPoint x="1250" y="870" />
              <mxPoint x="1250" y="1050" />
              <mxPoint x="1080" y="1050" />
            </Array>
          </mxGeometry>
        </mxCell>
        <mxCell id="pyz4EVDYqer2w_OwESVc-15" value="" style="endArrow=diamondThin;html=1;rounded=0;endFill=0;endSize=11;entryX=0.5;entryY=1;entryDx=0;entryDy=0;" edge="1" parent="WIyWlLk6GJQsqaUBKTNV-1" target="0cmeJKZqvEH9mntdH682-107">
          <mxGeometry width="50" height="50" relative="1" as="geometry">
            <mxPoint x="1510" y="920" as="sourcePoint" />
            <mxPoint x="880" y="1040" as="targetPoint" />
            <Array as="points">
              <mxPoint x="1510" y="870" />
              <mxPoint x="1250" y="870" />
              <mxPoint x="1250" y="1050" />
              <mxPoint x="865" y="1050" />
            </Array>
          </mxGeometry>
        </mxCell>
        <mxCell id="pyz4EVDYqer2w_OwESVc-16" value="" style="endArrow=diamondThin;html=1;rounded=0;endFill=0;endSize=11;entryX=0.5;entryY=1;entryDx=0;entryDy=0;exitX=0.5;exitY=0;exitDx=0;exitDy=0;" edge="1" parent="WIyWlLk6GJQsqaUBKTNV-1" source="0cmeJKZqvEH9mntdH682-149" target="0cmeJKZqvEH9mntdH682-13">
          <mxGeometry width="50" height="50" relative="1" as="geometry">
            <mxPoint x="1555" y="820" as="sourcePoint" />
            <mxPoint x="910" y="900" as="targetPoint" />
            <Array as="points">
              <mxPoint x="1510" y="870" />
              <mxPoint x="1250" y="870" />
              <mxPoint x="1250" y="750" />
              <mxPoint x="865" y="750" />
            </Array>
          </mxGeometry>
        </mxCell>
        <mxCell id="pyz4EVDYqer2w_OwESVc-17" value="" style="endArrow=diamondThin;html=1;rounded=0;endFill=0;endSize=11;entryX=0.5;entryY=1;entryDx=0;entryDy=0;exitX=0.5;exitY=0;exitDx=0;exitDy=0;" edge="1" parent="WIyWlLk6GJQsqaUBKTNV-1" source="0cmeJKZqvEH9mntdH682-149" target="0cmeJKZqvEH9mntdH682-46">
          <mxGeometry width="50" height="50" relative="1" as="geometry">
            <mxPoint x="1545" y="850" as="sourcePoint" />
            <mxPoint x="900" y="660" as="targetPoint" />
            <Array as="points">
              <mxPoint x="1510" y="870" />
              <mxPoint x="1250" y="870" />
              <mxPoint x="1250" y="860" />
              <mxPoint x="865" y="860" />
            </Array>
          </mxGeometry>
        </mxCell>
        <mxCell id="pyz4EVDYqer2w_OwESVc-18" value="MenuScreen" style="swimlane;fontStyle=0;align=center;verticalAlign=top;childLayout=stackLayout;horizontal=1;startSize=26;horizontalStack=0;resizeParent=1;resizeLast=0;collapsible=1;marginBottom=0;rounded=0;shadow=0;strokeWidth=1;" vertex="1" parent="WIyWlLk6GJQsqaUBKTNV-1">
          <mxGeometry x="-590" y="560" width="230" height="90" as="geometry">
            <mxRectangle x="550" y="140" width="160" height="26" as="alternateBounds" />
          </mxGeometry>
        </mxCell>
        <mxCell id="pyz4EVDYqer2w_OwESVc-19" value="+PrintMenu(string[], int, bool) : void" style="text;align=left;verticalAlign=top;spacingLeft=4;spacingRight=4;overflow=hidden;rotatable=0;points=[[0,0.5],[1,0.5]];portConstraint=eastwest;" vertex="1" parent="pyz4EVDYqer2w_OwESVc-18">
          <mxGeometry y="26" width="230" height="24" as="geometry" />
        </mxCell>
        <mxCell id="pyz4EVDYqer2w_OwESVc-20" value="+EraseMenu() : void" style="text;align=left;verticalAlign=top;spacingLeft=4;spacingRight=4;overflow=hidden;rotatable=0;points=[[0,0.5],[1,0.5]];portConstraint=eastwest;" vertex="1" parent="pyz4EVDYqer2w_OwESVc-18">
          <mxGeometry y="50" width="230" height="24" as="geometry" />
        </mxCell>
        <mxCell id="pyz4EVDYqer2w_OwESVc-23" value="InformatoinScreen" style="swimlane;fontStyle=0;align=center;verticalAlign=top;childLayout=stackLayout;horizontal=1;startSize=26;horizontalStack=0;resizeParent=1;resizeLast=0;collapsible=1;marginBottom=0;rounded=0;shadow=0;strokeWidth=1;" vertex="1" parent="WIyWlLk6GJQsqaUBKTNV-1">
          <mxGeometry x="-250" y="560" width="250" height="150" as="geometry">
            <mxRectangle x="550" y="140" width="160" height="26" as="alternateBounds" />
          </mxGeometry>
        </mxCell>
        <mxCell id="pyz4EVDYqer2w_OwESVc-24" value="+PrintBookInfo(List&lt;BookDto) : void" style="text;align=left;verticalAlign=top;spacingLeft=4;spacingRight=4;overflow=hidden;rotatable=0;points=[[0,0.5],[1,0.5]];portConstraint=eastwest;" vertex="1" parent="pyz4EVDYqer2w_OwESVc-23">
          <mxGeometry y="26" width="250" height="24" as="geometry" />
        </mxCell>
        <mxCell id="pyz4EVDYqer2w_OwESVc-25" value="+PrintIdSearch(string) : void" style="text;align=left;verticalAlign=top;spacingLeft=4;spacingRight=4;overflow=hidden;rotatable=0;points=[[0,0.5],[1,0.5]];portConstraint=eastwest;" vertex="1" parent="pyz4EVDYqer2w_OwESVc-23">
          <mxGeometry y="50" width="250" height="24" as="geometry" />
        </mxCell>
        <mxCell id="pyz4EVDYqer2w_OwESVc-26" value="+AccountScreen(List&lt;AccountDto&gt;) : void" style="text;align=left;verticalAlign=top;spacingLeft=4;spacingRight=4;overflow=hidden;rotatable=0;points=[[0,0.5],[1,0.5]];portConstraint=eastwest;" vertex="1" parent="pyz4EVDYqer2w_OwESVc-23">
          <mxGeometry y="74" width="250" height="24" as="geometry" />
        </mxCell>
        <mxCell id="pyz4EVDYqer2w_OwESVc-27" value="+PrintAccountInfomation(AccountDto) : void" style="text;align=left;verticalAlign=top;spacingLeft=4;spacingRight=4;overflow=hidden;rotatable=0;points=[[0,0.5],[1,0.5]];portConstraint=eastwest;" vertex="1" parent="pyz4EVDYqer2w_OwESVc-23">
          <mxGeometry y="98" width="250" height="24" as="geometry" />
        </mxCell>
        <mxCell id="pyz4EVDYqer2w_OwESVc-28" value="ExplainingScreen" style="swimlane;fontStyle=0;align=center;verticalAlign=top;childLayout=stackLayout;horizontal=1;startSize=26;horizontalStack=0;resizeParent=1;resizeLast=0;collapsible=1;marginBottom=0;rounded=0;shadow=0;strokeWidth=1;" vertex="1" parent="WIyWlLk6GJQsqaUBKTNV-1">
          <mxGeometry x="-440" y="770" width="250" height="320" as="geometry">
            <mxRectangle x="550" y="140" width="160" height="26" as="alternateBounds" />
          </mxGeometry>
        </mxCell>
        <mxCell id="pyz4EVDYqer2w_OwESVc-32" value="+ExplainSelectKey() : void" style="text;align=left;verticalAlign=top;spacingLeft=4;spacingRight=4;overflow=hidden;rotatable=0;points=[[0,0.5],[1,0.5]];portConstraint=eastwest;fontStyle=4" vertex="1" parent="pyz4EVDYqer2w_OwESVc-28">
          <mxGeometry y="26" width="250" height="24" as="geometry" />
        </mxCell>
        <mxCell id="pyz4EVDYqer2w_OwESVc-33" value="+ExplainDirectKey() : void" style="text;align=left;verticalAlign=top;spacingLeft=4;spacingRight=4;overflow=hidden;rotatable=0;points=[[0,0.5],[1,0.5]];portConstraint=eastwest;fontStyle=4" vertex="1" parent="pyz4EVDYqer2w_OwESVc-28">
          <mxGeometry y="50" width="250" height="24" as="geometry" />
        </mxCell>
        <mxCell id="pyz4EVDYqer2w_OwESVc-34" value="+ExplainInputKey() : void" style="text;align=left;verticalAlign=top;spacingLeft=4;spacingRight=4;overflow=hidden;rotatable=0;points=[[0,0.5],[1,0.5]];portConstraint=eastwest;fontStyle=4" vertex="1" parent="pyz4EVDYqer2w_OwESVc-28">
          <mxGeometry y="74" width="250" height="24" as="geometry" />
        </mxCell>
        <mxCell id="pyz4EVDYqer2w_OwESVc-35" value="+PrintQuit() : void" style="text;align=left;verticalAlign=top;spacingLeft=4;spacingRight=4;overflow=hidden;rotatable=0;points=[[0,0.5],[1,0.5]];portConstraint=eastwest;fontStyle=4" vertex="1" parent="pyz4EVDYqer2w_OwESVc-28">
          <mxGeometry y="98" width="250" height="24" as="geometry" />
        </mxCell>
        <mxCell id="pyz4EVDYqer2w_OwESVc-36" value="+PrintInputFailure(Tuple&lt;int, int&gt;) : void" style="text;align=left;verticalAlign=top;spacingLeft=4;spacingRight=4;overflow=hidden;rotatable=0;points=[[0,0.5],[1,0.5]];portConstraint=eastwest;fontStyle=4" vertex="1" parent="pyz4EVDYqer2w_OwESVc-28">
          <mxGeometry y="122" width="250" height="24" as="geometry" />
        </mxCell>
        <mxCell id="pyz4EVDYqer2w_OwESVc-37" value="+PrintEnterCheck() : void" style="text;align=left;verticalAlign=top;spacingLeft=4;spacingRight=4;overflow=hidden;rotatable=0;points=[[0,0.5],[1,0.5]];portConstraint=eastwest;fontStyle=4" vertex="1" parent="pyz4EVDYqer2w_OwESVc-28">
          <mxGeometry y="146" width="250" height="24" as="geometry" />
        </mxCell>
        <mxCell id="pyz4EVDYqer2w_OwESVc-38" value="+PrintIncorrectInput() : void" style="text;align=left;verticalAlign=top;spacingLeft=4;spacingRight=4;overflow=hidden;rotatable=0;points=[[0,0.5],[1,0.5]];portConstraint=eastwest;fontStyle=4" vertex="1" parent="pyz4EVDYqer2w_OwESVc-28">
          <mxGeometry y="170" width="250" height="24" as="geometry" />
        </mxCell>
        <mxCell id="pyz4EVDYqer2w_OwESVc-39" value="+PrintEsc() : void" style="text;align=left;verticalAlign=top;spacingLeft=4;spacingRight=4;overflow=hidden;rotatable=0;points=[[0,0.5],[1,0.5]];portConstraint=eastwest;fontStyle=4" vertex="1" parent="pyz4EVDYqer2w_OwESVc-28">
          <mxGeometry y="194" width="250" height="24" as="geometry" />
        </mxCell>
        <mxCell id="pyz4EVDYqer2w_OwESVc-40" value="+PrintEnter() : void" style="text;align=left;verticalAlign=top;spacingLeft=4;spacingRight=4;overflow=hidden;rotatable=0;points=[[0,0.5],[1,0.5]];portConstraint=eastwest;fontStyle=4" vertex="1" parent="pyz4EVDYqer2w_OwESVc-28">
          <mxGeometry y="218" width="250" height="24" as="geometry" />
        </mxCell>
        <mxCell id="pyz4EVDYqer2w_OwESVc-41" value="+PrintComplete() : void" style="text;align=left;verticalAlign=top;spacingLeft=4;spacingRight=4;overflow=hidden;rotatable=0;points=[[0,0.5],[1,0.5]];portConstraint=eastwest;fontStyle=4" vertex="1" parent="pyz4EVDYqer2w_OwESVc-28">
          <mxGeometry y="242" width="250" height="24" as="geometry" />
        </mxCell>
        <mxCell id="pyz4EVDYqer2w_OwESVc-42" value="+PrintIdInputString() : void" style="text;align=left;verticalAlign=top;spacingLeft=4;spacingRight=4;overflow=hidden;rotatable=0;points=[[0,0.5],[1,0.5]];portConstraint=eastwest;fontStyle=4" vertex="1" parent="pyz4EVDYqer2w_OwESVc-28">
          <mxGeometry y="266" width="250" height="24" as="geometry" />
        </mxCell>
        <mxCell id="pyz4EVDYqer2w_OwESVc-43" value="+PrintBookInfo() : void" style="text;align=left;verticalAlign=top;spacingLeft=4;spacingRight=4;overflow=hidden;rotatable=0;points=[[0,0.5],[1,0.5]];portConstraint=eastwest;fontStyle=4" vertex="1" parent="pyz4EVDYqer2w_OwESVc-28">
          <mxGeometry y="290" width="250" height="24" as="geometry" />
        </mxCell>
        <mxCell id="pyz4EVDYqer2w_OwESVc-45" value="AccountDto" style="swimlane;fontStyle=0;align=center;verticalAlign=top;childLayout=stackLayout;horizontal=1;startSize=26;horizontalStack=0;resizeParent=1;resizeLast=0;collapsible=1;marginBottom=0;rounded=0;shadow=0;strokeWidth=1;" vertex="1" parent="WIyWlLk6GJQsqaUBKTNV-1">
          <mxGeometry x="150" y="1110" width="150" height="150" as="geometry">
            <mxRectangle x="550" y="140" width="160" height="26" as="alternateBounds" />
          </mxGeometry>
        </mxCell>
        <mxCell id="pyz4EVDYqer2w_OwESVc-59" value="-id : string" style="text;align=left;verticalAlign=top;spacingLeft=4;spacingRight=4;overflow=hidden;rotatable=0;points=[[0,0.5],[1,0.5]];portConstraint=eastwest;" vertex="1" parent="pyz4EVDYqer2w_OwESVc-45">
          <mxGeometry y="26" width="150" height="20" as="geometry" />
        </mxCell>
        <mxCell id="pyz4EVDYqer2w_OwESVc-60" value="-password : string" style="text;align=left;verticalAlign=top;spacingLeft=4;spacingRight=4;overflow=hidden;rotatable=0;points=[[0,0.5],[1,0.5]];portConstraint=eastwest;" vertex="1" parent="pyz4EVDYqer2w_OwESVc-45">
          <mxGeometry y="46" width="150" height="20" as="geometry" />
        </mxCell>
        <mxCell id="pyz4EVDYqer2w_OwESVc-61" value="-name: string" style="text;align=left;verticalAlign=top;spacingLeft=4;spacingRight=4;overflow=hidden;rotatable=0;points=[[0,0.5],[1,0.5]];portConstraint=eastwest;" vertex="1" parent="pyz4EVDYqer2w_OwESVc-45">
          <mxGeometry y="66" width="150" height="20" as="geometry" />
        </mxCell>
        <mxCell id="pyz4EVDYqer2w_OwESVc-62" value="-age: string" style="text;align=left;verticalAlign=top;spacingLeft=4;spacingRight=4;overflow=hidden;rotatable=0;points=[[0,0.5],[1,0.5]];portConstraint=eastwest;" vertex="1" parent="pyz4EVDYqer2w_OwESVc-45">
          <mxGeometry y="86" width="150" height="20" as="geometry" />
        </mxCell>
        <mxCell id="pyz4EVDYqer2w_OwESVc-63" value="-phoneNumber: string" style="text;align=left;verticalAlign=top;spacingLeft=4;spacingRight=4;overflow=hidden;rotatable=0;points=[[0,0.5],[1,0.5]];portConstraint=eastwest;" vertex="1" parent="pyz4EVDYqer2w_OwESVc-45">
          <mxGeometry y="106" width="150" height="20" as="geometry" />
        </mxCell>
        <mxCell id="pyz4EVDYqer2w_OwESVc-64" value="-address: string" style="text;align=left;verticalAlign=top;spacingLeft=4;spacingRight=4;overflow=hidden;rotatable=0;points=[[0,0.5],[1,0.5]];portConstraint=eastwest;" vertex="1" parent="pyz4EVDYqer2w_OwESVc-45">
          <mxGeometry y="126" width="150" height="20" as="geometry" />
        </mxCell>
        <mxCell id="pyz4EVDYqer2w_OwESVc-50" value="AccountRepository" style="swimlane;fontStyle=0;align=center;verticalAlign=top;childLayout=stackLayout;horizontal=1;startSize=26;horizontalStack=0;resizeParent=1;resizeLast=0;collapsible=1;marginBottom=0;rounded=0;shadow=0;strokeWidth=1;" vertex="1" parent="WIyWlLk6GJQsqaUBKTNV-1">
          <mxGeometry x="150" y="1340" width="150" height="120" as="geometry">
            <mxRectangle x="550" y="140" width="160" height="26" as="alternateBounds" />
          </mxGeometry>
        </mxCell>
        <mxCell id="pyz4EVDYqer2w_OwESVc-51" value="BookDto" style="swimlane;fontStyle=0;align=center;verticalAlign=top;childLayout=stackLayout;horizontal=1;startSize=26;horizontalStack=0;resizeParent=1;resizeLast=0;collapsible=1;marginBottom=0;rounded=0;shadow=0;strokeWidth=1;" vertex="1" parent="WIyWlLk6GJQsqaUBKTNV-1">
          <mxGeometry x="339" y="1110" width="150" height="190" as="geometry">
            <mxRectangle x="550" y="140" width="160" height="26" as="alternateBounds" />
          </mxGeometry>
        </mxCell>
        <mxCell id="pyz4EVDYqer2w_OwESVc-65" value="-title: string" style="text;align=left;verticalAlign=top;spacingLeft=4;spacingRight=4;overflow=hidden;rotatable=0;points=[[0,0.5],[1,0.5]];portConstraint=eastwest;" vertex="1" parent="pyz4EVDYqer2w_OwESVc-51">
          <mxGeometry y="26" width="150" height="20" as="geometry" />
        </mxCell>
        <mxCell id="pyz4EVDYqer2w_OwESVc-66" value="-writer: string" style="text;align=left;verticalAlign=top;spacingLeft=4;spacingRight=4;overflow=hidden;rotatable=0;points=[[0,0.5],[1,0.5]];portConstraint=eastwest;" vertex="1" parent="pyz4EVDYqer2w_OwESVc-51">
          <mxGeometry y="46" width="150" height="20" as="geometry" />
        </mxCell>
        <mxCell id="pyz4EVDYqer2w_OwESVc-67" value="-publisher: string" style="text;align=left;verticalAlign=top;spacingLeft=4;spacingRight=4;overflow=hidden;rotatable=0;points=[[0,0.5],[1,0.5]];portConstraint=eastwest;" vertex="1" parent="pyz4EVDYqer2w_OwESVc-51">
          <mxGeometry y="66" width="150" height="20" as="geometry" />
        </mxCell>
        <mxCell id="pyz4EVDYqer2w_OwESVc-68" value="-count: string" style="text;align=left;verticalAlign=top;spacingLeft=4;spacingRight=4;overflow=hidden;rotatable=0;points=[[0,0.5],[1,0.5]];portConstraint=eastwest;" vertex="1" parent="pyz4EVDYqer2w_OwESVc-51">
          <mxGeometry y="86" width="150" height="20" as="geometry" />
        </mxCell>
        <mxCell id="pyz4EVDYqer2w_OwESVc-69" value="-price: string" style="text;align=left;verticalAlign=top;spacingLeft=4;spacingRight=4;overflow=hidden;rotatable=0;points=[[0,0.5],[1,0.5]];portConstraint=eastwest;" vertex="1" parent="pyz4EVDYqer2w_OwESVc-51">
          <mxGeometry y="106" width="150" height="20" as="geometry" />
        </mxCell>
        <mxCell id="pyz4EVDYqer2w_OwESVc-70" value="-releaseDate: string" style="text;align=left;verticalAlign=top;spacingLeft=4;spacingRight=4;overflow=hidden;rotatable=0;points=[[0,0.5],[1,0.5]];portConstraint=eastwest;" vertex="1" parent="pyz4EVDYqer2w_OwESVc-51">
          <mxGeometry y="126" width="150" height="20" as="geometry" />
        </mxCell>
        <mxCell id="pyz4EVDYqer2w_OwESVc-71" value="-iSBN: string" style="text;align=left;verticalAlign=top;spacingLeft=4;spacingRight=4;overflow=hidden;rotatable=0;points=[[0,0.5],[1,0.5]];portConstraint=eastwest;" vertex="1" parent="pyz4EVDYqer2w_OwESVc-51">
          <mxGeometry y="146" width="150" height="20" as="geometry" />
        </mxCell>
        <mxCell id="pyz4EVDYqer2w_OwESVc-72" value="-info: string" style="text;align=left;verticalAlign=top;spacingLeft=4;spacingRight=4;overflow=hidden;rotatable=0;points=[[0,0.5],[1,0.5]];portConstraint=eastwest;" vertex="1" parent="pyz4EVDYqer2w_OwESVc-51">
          <mxGeometry y="166" width="150" height="20" as="geometry" />
        </mxCell>
        <mxCell id="pyz4EVDYqer2w_OwESVc-52" value="BookRepository" style="swimlane;fontStyle=0;align=center;verticalAlign=top;childLayout=stackLayout;horizontal=1;startSize=26;horizontalStack=0;resizeParent=1;resizeLast=0;collapsible=1;marginBottom=0;rounded=0;shadow=0;strokeWidth=1;" vertex="1" parent="WIyWlLk6GJQsqaUBKTNV-1">
          <mxGeometry x="330" y="1340" width="150" height="120" as="geometry">
            <mxRectangle x="550" y="140" width="160" height="26" as="alternateBounds" />
          </mxGeometry>
        </mxCell>
        <mxCell id="pyz4EVDYqer2w_OwESVc-53" value="ManagerRepository" style="swimlane;fontStyle=0;align=center;verticalAlign=top;childLayout=stackLayout;horizontal=1;startSize=26;horizontalStack=0;resizeParent=1;resizeLast=0;collapsible=1;marginBottom=0;rounded=0;shadow=0;strokeWidth=1;" vertex="1" parent="WIyWlLk6GJQsqaUBKTNV-1">
          <mxGeometry x="-30" y="1340" width="150" height="120" as="geometry">
            <mxRectangle x="550" y="140" width="160" height="26" as="alternateBounds" />
          </mxGeometry>
        </mxCell>
        <mxCell id="pyz4EVDYqer2w_OwESVc-54" value="UserRepository" style="swimlane;fontStyle=0;align=center;verticalAlign=top;childLayout=stackLayout;horizontal=1;startSize=26;horizontalStack=0;resizeParent=1;resizeLast=0;collapsible=1;marginBottom=0;rounded=0;shadow=0;strokeWidth=1;" vertex="1" parent="WIyWlLk6GJQsqaUBKTNV-1">
          <mxGeometry x="510" y="1340" width="150" height="120" as="geometry">
            <mxRectangle x="550" y="140" width="160" height="26" as="alternateBounds" />
          </mxGeometry>
        </mxCell>
        <mxCell id="pyz4EVDYqer2w_OwESVc-55" value="Constants" style="swimlane;fontStyle=0;align=center;verticalAlign=top;childLayout=stackLayout;horizontal=1;startSize=26;horizontalStack=0;resizeParent=1;resizeLast=0;collapsible=1;marginBottom=0;rounded=0;shadow=0;strokeWidth=1;" vertex="1" parent="WIyWlLk6GJQsqaUBKTNV-1">
          <mxGeometry x="200" y="760" width="150" height="90" as="geometry">
            <mxRectangle x="550" y="140" width="160" height="26" as="alternateBounds" />
          </mxGeometry>
        </mxCell>
        <mxCell id="pyz4EVDYqer2w_OwESVc-57" value="+ENUM" style="text;align=left;verticalAlign=top;spacingLeft=4;spacingRight=4;overflow=hidden;rotatable=0;points=[[0,0.5],[1,0.5]];portConstraint=eastwest;" vertex="1" parent="pyz4EVDYqer2w_OwESVc-55">
          <mxGeometry y="26" width="150" height="20" as="geometry" />
        </mxCell>
      </root>
    </mxGraphModel>
  </diagram>
</mxfile>
